<svg xmlns="http://www.w3.org/2000/svg" width="599" height="171" viewBox="0 0 599 171" version="1.1"><path d="M 485.692 2.642 C 485.311 3.022, 485 7.273, 485 12.089 L 485 20.845 481.250 22.049 C 479.188 22.711, 475.092 24.375, 472.149 25.747 L 466.797 28.241 460.260 21.871 C 456.665 18.367, 454.037 16.063, 454.420 16.750 C 454.866 17.549, 454.458 18, 453.290 18 C 452.285 18, 447.081 22.398, 441.726 27.773 L 431.989 37.547 438.394 43.895 L 444.800 50.244 441.950 56.269 C 439.278 61.920, 439.194 62.475, 440.603 65.199 C 442.593 69.047, 444.476 69.620, 448.625 67.642 C 452.706 65.696, 462.729 65.464, 466.597 67.226 C 469.031 68.335, 469.441 68.216, 470.894 65.985 C 474.638 60.234, 479.631 55.815, 485.837 52.760 C 491.905 49.772, 493.252 49.500, 501.979 49.500 C 510.397 49.500, 512.165 49.826, 517.239 52.318 C 533.541 60.323, 541.689 78.798, 536.616 96.250 C 530.028 118.912, 501.432 129.252, 481.916 116.029 C 479.487 114.383, 476.461 113.028, 475.191 113.018 C 473.921 113.008, 473.141 112.581, 473.458 112.068 C 473.775 111.556, 472.564 111.875, 470.767 112.778 C 468.970 113.680, 464.700 114.601, 461.277 114.824 C 456.261 115.151, 454.322 114.815, 451.277 113.092 C 447.727 111.082, 447.642 111.075, 449.861 112.977 L 452.222 115 448.361 115.118 C 446.237 115.184, 444.143 115.177, 443.707 115.104 C 443.271 115.031, 443.359 115.803, 443.903 116.818 C 444.726 118.356, 443.810 119.737, 438.440 125.059 L 431.989 131.453 441.744 141.263 C 450.057 149.622, 451.859 150.984, 453.925 150.473 C 456.131 149.928, 456.226 150.037, 454.982 151.687 C 454.230 152.684, 456.615 150.599, 460.283 147.052 L 466.952 140.605 470.726 142.679 C 472.802 143.819, 476.846 145.514, 479.713 146.445 L 484.927 148.136 485.213 157.318 L 485.500 166.500 501 166.500 L 516.500 166.500 516.638 157.540 C 516.768 149.114, 516.917 148.523, 519.138 147.638 C 520.437 147.121, 524.559 145.339, 528.297 143.679 L 535.094 140.661 540.328 145.830 C 547.672 153.083, 548.660 152.890, 559.386 142.115 C 564.250 137.228, 568.291 132.840, 568.365 132.365 C 568.439 131.889, 568.950 131.641, 569.500 131.813 C 570.050 131.986, 567.481 129.061, 563.790 125.313 L 557.081 118.500 560.018 112.500 C 561.634 109.200, 563.241 105.037, 563.589 103.250 L 564.223 100 573.611 100 L 583 100 583 84.500 L 583 69 573.611 69 L 564.223 69 563.589 65.750 C 563.241 63.962, 561.634 59.800, 560.018 56.500 L 557.081 50.500 563.790 43.558 C 567.481 39.740, 569.712 37.208, 568.750 37.931 C 567.205 39.091, 567 38.965, 567 36.850 C 567 34.127, 551.350 17.821, 548.293 17.359 C 547.223 17.197, 544.202 19.355, 540.799 22.714 L 535.097 28.341 528.299 25.322 C 524.559 23.661, 520.437 21.879, 519.138 21.362 C 516.917 20.477, 516.768 19.886, 516.638 11.460 L 516.500 2.500 501.442 2.225 C 493.160 2.074, 486.072 2.261, 485.692 2.642 M 440.985 24.750 L 428.500 37.500 441.250 25.015 C 453.093 13.418, 454.453 12, 453.735 12 C 453.589 12, 447.852 17.738, 440.985 24.750 M 540.473 19.250 L 533.500 26.500 540.756 19.521 L 548.012 12.542 560.756 25.021 L 573.500 37.500 561.015 24.750 C 554.148 17.738, 548.286 12, 547.988 12 C 547.690 12, 544.308 15.262, 540.473 19.250 M 435.035 44.525 C 438.591 48.389, 441.704 51.410, 441.954 51.238 C 442.203 51.067, 439.294 47.905, 435.489 44.213 L 428.571 37.500 435.035 44.525 M 199.453 55.250 L 195.500 59.500 199.750 55.547 C 203.702 51.871, 204.460 51, 203.703 51 C 203.540 51, 201.627 52.913, 199.453 55.250 M 209.500 52.391 C 202.833 55.307, 195.340 65.254, 183.062 87.487 C 176.467 99.430, 169.930 108, 167.415 108 C 165.040 108, 165.841 110.922, 168.392 111.562 C 171.836 112.427, 176.441 109.678, 179.807 104.749 C 181.403 102.412, 186.642 93.300, 191.450 84.500 C 200.704 67.560, 207.186 58, 209.416 58 C 210.429 58, 210.149 59.532, 208.296 64.119 C 203.895 75.015, 200.963 88.649, 200.913 98.458 C 200.887 103.431, 201.156 108.253, 201.510 109.173 C 202.288 111.191, 204.458 112.145, 206.494 111.364 C 208.345 110.654, 214.750 100.255, 223 84.567 C 231.259 68.863, 238.281 58, 240.173 58 C 240.612 58, 240.016 60.362, 238.850 63.250 C 234.346 74.399, 228.943 92.249, 228.347 97.951 C 227.421 106.814, 230.466 112, 236.597 112 C 239.270 112, 243.840 109.079, 244.520 106.936 C 245.408 104.141, 244.798 103.746, 241.517 104.994 C 234.044 107.835, 234.328 99.308, 242.548 74.030 C 245.664 64.448, 248.425 56.056, 248.684 55.381 C 248.943 54.706, 248.284 53.687, 247.220 53.118 C 244.005 51.397, 238.856 53.556, 233.828 58.734 C 228.042 64.693, 224.138 70.892, 215.397 88 C 209.225 100.080, 208.467 101.159, 208.187 98.261 C 207.693 93.134, 210.673 79.255, 215.103 66.054 C 217.345 59.375, 218.928 53.255, 218.621 52.455 C 217.933 50.662, 213.521 50.631, 209.500 52.391 M 230.437 56.250 L 227.500 59.500 230.750 56.563 C 233.779 53.825, 234.460 53, 233.687 53 C 233.515 53, 232.052 54.462, 230.437 56.250 M 86.250 66.689 C 87.213 66.941, 88.787 66.941, 89.750 66.689 C 90.713 66.438, 89.925 66.232, 88 66.232 C 86.075 66.232, 85.287 66.438, 86.250 66.689 M 124.250 66.992 C 125.213 67.601, 126 68.977, 126 70.050 C 126 72.243, 127.508 72.650, 128.601 70.750 C 128.997 70.063, 128.951 69.835, 128.500 70.244 C 128.048 70.653, 127.188 70.014, 126.589 68.823 C 125.990 67.632, 124.825 66.484, 124 66.271 C 122.986 66.009, 123.067 66.243, 124.250 66.992 M 137.762 66.707 C 139.006 66.946, 140.806 66.937, 141.762 66.687 C 142.718 66.437, 141.700 66.241, 139.500 66.252 C 137.300 66.263, 136.518 66.468, 137.762 66.707 M 415.980 68.250 C 415.010 70.251, 415.043 70.311, 416.276 68.790 C 417.366 67.446, 419.678 67.008, 427.081 66.747 L 436.500 66.415 426.785 66.208 C 417.600 66.011, 417.011 66.123, 415.980 68.250 M 575.498 66.729 L 585 67.072 585 84.500 L 585 101.928 575.498 102.271 L 565.995 102.615 575.748 102.557 L 585.500 102.500 585.500 84.500 L 585.500 66.500 575.748 66.443 L 565.995 66.385 575.498 66.729 M 74.761 69.530 C 75.318 72.446, 76.249 72.645, 78.128 70.250 C 79.371 68.664, 79.336 68.629, 77.750 69.872 C 76.244 71.053, 76 71.027, 76 69.681 C 76 68.822, 75.615 67.880, 75.144 67.589 C 74.674 67.298, 74.501 68.172, 74.761 69.530 M 59 70.941 C 59 72.559, 59.356 74.102, 59.791 74.371 C 60.226 74.640, 60.402 73.316, 60.182 71.430 C 59.691 67.227, 59 66.941, 59 70.941 M 110 71.441 C 110 72.784, 110.369 74.110, 110.819 74.388 C 111.270 74.667, 111.443 73.568, 111.206 71.947 C 110.681 68.373, 110 68.087, 110 71.441 M 275.365 71.963 C 265.621 74.254, 256.014 87.684, 256.025 99 C 256.030 105.582, 257.583 109.032, 261.353 110.840 C 265.483 112.820, 268.904 111.487, 274.250 105.814 L 279 100.773 279 104.863 C 279 108.120, 279.508 109.287, 281.493 110.587 C 284.422 112.507, 288.119 111.881, 291.025 108.975 C 294.088 105.912, 293.550 104.337, 289.598 104.799 C 286.853 105.119, 286.072 104.801, 285.547 103.147 C 284.627 100.249, 286.513 94.009, 291.601 83.121 C 294.021 77.944, 296 73.537, 296 73.329 C 296 73.121, 294.807 72.497, 293.349 71.943 C 291.149 71.106, 290.300 71.309, 288.360 73.132 C 286.231 75.132, 285.863 75.190, 284.260 73.783 C 281.842 71.659, 279.072 71.092, 275.365 71.963 M 311.250 72.031 C 308.871 72.988, 308.336 74.471, 310 75.500 C 312.471 77.027, 309.237 89.581, 303.376 101.217 C 300.469 106.987, 300.375 109.595, 303.021 111.011 C 305.841 112.520, 306.849 111.602, 310.043 104.614 C 314.755 94.306, 328.617 77.569, 331.891 78.235 C 334.202 78.705, 333.697 81.409, 329.571 90.671 C 323.576 104.126, 324.645 111.400, 332.615 111.400 C 335.357 111.400, 336.849 110.714, 338.644 108.628 C 341.370 105.458, 340.925 103.435, 337.861 105.074 C 335.166 106.517, 333 105.554, 333 102.913 C 333 101.731, 334.744 96.880, 336.875 92.132 C 339.007 87.384, 341.072 82.019, 341.464 80.209 C 342.841 73.853, 336.986 69.404, 331.190 72.402 C 328.232 73.932, 321.449 80.859, 318.495 85.367 C 316.295 88.724, 315.570 88.219, 317.090 84.389 C 319.720 77.759, 319.924 74.924, 317.914 72.914 C 315.820 70.820, 314.649 70.665, 311.250 72.031 M 370.852 72.391 C 361.668 75.672, 353.909 86.092, 352.388 97.189 C 351.646 102.599, 353.769 108.147, 357.521 110.605 C 359.953 112.199, 360.598 112.230, 364.313 110.933 C 367.025 109.986, 369.533 108.033, 371.708 105.172 L 375 100.845 375 103.968 C 375 107.631, 378.825 112, 382.031 112 C 384.142 112, 390 107.010, 390 105.213 C 390 104.695, 388.313 104.323, 386.250 104.386 L 382.500 104.500 382.552 100 C 382.588 96.856, 384.069 92.219, 387.469 84.609 C 392.115 74.213, 392.251 73.657, 390.477 72.359 C 388.009 70.555, 387.421 70.632, 385.160 73.059 L 383.242 75.118 379.871 73.063 C 375.963 70.680, 375.696 70.660, 370.852 72.391 M 418.885 72.358 C 405.304 77.294, 396.215 95.220, 401.570 106.507 C 404.841 113.400, 411.995 113.284, 419.353 106.218 C 422.914 102.798, 423.168 102.701, 422.524 105 C 421.036 110.315, 416.151 119.759, 413.082 123.254 C 411.315 125.266, 408.092 127.697, 405.919 128.656 C 402.497 130.166, 402.160 130.589, 403.398 131.827 C 407.444 135.873, 418.385 128.327, 424.172 117.500 C 425.642 114.750, 429.591 104.177, 432.948 94.005 C 438.581 76.931, 438.919 75.414, 437.341 74.260 C 435.961 73.251, 435.216 73.284, 433.464 74.431 C 431.541 75.692, 431.082 75.642, 429.398 73.989 C 426.742 71.383, 423.116 70.820, 418.885 72.358 M 466.275 71.952 C 456.479 74.338, 447 86.975, 447 97.649 C 447 106.334, 449.805 110.122, 457.269 111.523 C 465.186 113.008, 476.419 107.140, 474.622 102.458 C 474.109 101.119, 473.427 101.245, 469.762 103.353 C 463.324 107.055, 459.563 107.563, 457.065 105.065 C 455.929 103.929, 455 101.701, 455 100.114 C 455 97.433, 455.339 97.178, 459.750 96.541 C 462.363 96.164, 466.851 94.793, 469.724 93.495 C 484.152 86.976, 481.167 68.324, 466.275 71.952 M 495.250 72.031 C 492.871 72.988, 492.336 74.471, 494 75.500 C 496.424 76.998, 493.468 90.743, 487.959 103.596 C 486.063 108.018, 486.064 108.064, 488.087 110.087 C 489.208 111.208, 490.627 111.958, 491.241 111.753 C 492.532 111.323, 492.431 111.504, 498.370 98.906 C 500.911 93.516, 504.816 87.188, 507.280 84.466 C 511.615 79.678, 511.706 79.636, 514.889 80.954 C 518.600 82.491, 519.689 81.807, 520.574 77.382 C 521.219 74.153, 519.189 71, 516.463 71 C 514.129 71, 508.160 76.920, 504.754 82.615 C 500.914 89.034, 499.532 89.576, 501.544 83.874 C 502.345 81.605, 503 78.219, 503 76.350 C 503 73.621, 502.494 72.758, 500.435 71.975 C 499.024 71.439, 497.787 71.029, 497.685 71.063 C 497.583 71.098, 496.488 71.534, 495.250 72.031 M 452.946 75.750 L 449.500 79.500 453.250 76.054 C 455.313 74.158, 457 72.471, 457 72.304 C 457 71.540, 456.154 72.260, 452.946 75.750 M 358.437 76.250 L 355.500 79.500 358.750 76.563 C 361.779 73.825, 362.460 73, 361.687 73 C 361.515 73, 360.052 74.463, 358.437 76.250 M 417.683 77.973 C 409.365 85.277, 404.738 107, 411.500 107 C 414.518 107, 420.124 100.550, 423.979 92.642 C 429.280 81.768, 429.694 79.694, 427.087 77.087 C 424.227 74.227, 421.675 74.468, 417.683 77.973 M 272.711 79.250 C 267.148 84.518, 264.660 90.404, 264.574 98.500 L 264.500 105.500 267.458 105.500 C 269.835 105.500, 271.161 104.518, 274.209 100.500 C 276.295 97.750, 279.392 92.170, 281.092 88.099 C 283.616 82.056, 283.987 80.267, 283.113 78.349 C 281.505 74.819, 276.975 75.211, 272.711 79.250 M 370.057 78.605 C 365.748 82.231, 362.200 88.672, 360.874 95.275 C 358.617 106.511, 362.583 109.525, 369.520 101.847 C 373.645 97.281, 380 84.497, 380 80.766 C 380 75.542, 374.991 74.454, 370.057 78.605 M 463.541 78.701 C 460.731 81.482, 456.028 90.296, 456.010 92.817 C 455.987 95.861, 466.682 90.530, 469.797 85.945 C 474.899 78.437, 469.789 72.520, 463.541 78.701 M 76.185 91.691 C 76.083 100.046, 76.338 107.092, 76.750 107.348 C 77.162 107.605, 77.382 103.019, 77.237 97.157 C 76.770 78.202, 76.374 76.148, 76.185 91.691 M 127.185 91.691 C 127.083 100.046, 127.338 107.092, 127.750 107.348 C 128.162 107.605, 128.382 103.019, 128.237 97.157 C 127.770 78.202, 127.374 76.148, 127.185 91.691 M 373.405 80.155 C 372.940 80.906, 373.133 81.036, 373.957 80.526 C 374.695 80.070, 375.588 80.319, 376.096 81.122 C 376.787 82.212, 376.973 82.134, 376.985 80.750 C 377.002 78.789, 374.505 78.374, 373.405 80.155 M 144.320 90 C 144.320 93.575, 144.502 95.037, 144.723 93.250 C 144.945 91.463, 144.945 88.537, 144.723 86.750 C 144.502 84.963, 144.320 86.425, 144.320 90 M 93.300 90 C 93.300 93.025, 93.487 94.263, 93.716 92.750 C 93.945 91.237, 93.945 88.763, 93.716 87.250 C 93.487 85.737, 93.300 86.975, 93.300 90 M 416.147 85 C 415.469 86.388, 415.613 99.789, 416.299 99.102 C 416.739 98.662, 416.939 95.196, 416.745 91.401 C 416.551 87.605, 416.282 84.725, 416.147 85 M 27 90 L 18.500 90.627 27.250 90.814 C 32.541 90.926, 36 90.605, 36 90 C 36 89.450, 35.888 89.084, 35.750 89.186 C 35.612 89.289, 31.675 89.655, 27 90 M 396.300 99 C 396.300 102.025, 396.487 103.263, 396.716 101.750 C 396.945 100.237, 396.945 97.763, 396.716 96.250 C 396.487 94.737, 396.300 95.975, 396.300 99 M 348.252 99.500 C 348.263 101.700, 348.468 102.482, 348.707 101.238 C 348.946 99.994, 348.937 98.194, 348.687 97.238 C 348.437 96.282, 348.241 97.300, 348.252 99.500 M 196.232 100 C 196.232 101.925, 196.438 102.713, 196.689 101.750 C 196.941 100.787, 196.941 99.213, 196.689 98.250 C 196.438 97.287, 196.232 98.075, 196.232 100 M 224.286 101.500 C 224.294 104.250, 224.488 105.256, 224.718 103.736 C 224.947 102.216, 224.941 99.966, 224.704 98.736 C 224.467 97.506, 224.279 98.750, 224.286 101.500 M 98.437 107.250 L 95.500 110.500 98.750 107.563 C 100.537 105.948, 102 104.485, 102 104.313 C 102 103.540, 101.175 104.221, 98.437 107.250 M 18.190 107.619 C 19.119 107.896, 20.074 109.226, 20.311 110.574 C 20.689 112.718, 20.728 112.680, 20.622 110.271 C 20.535 108.299, 19.932 107.460, 18.500 107.316 C 17.057 107.171, 16.970 107.255, 18.190 107.619 M 34.384 108.442 C 34.080 109.234, 34.042 110.697, 34.299 111.692 C 34.615 112.911, 34.806 112.631, 34.884 110.833 C 34.948 109.367, 35.563 107.940, 36.250 107.662 C 37.229 107.267, 37.222 107.141, 36.219 107.079 C 35.514 107.036, 34.688 107.649, 34.384 108.442 M 76 120 C 76 126.030, 76.242 126.989, 77.750 126.921 C 78.795 126.874, 78.997 126.639, 78.250 126.338 C 77.450 126.015, 77 123.729, 77 119.990 C 77 115.266, 77.335 114.059, 78.750 113.689 C 80.067 113.345, 79.943 113.203, 78.250 113.116 C 76.120 113.006, 76 113.373, 76 120 M 127.204 119.670 C 127.400 124.082, 127.932 126.427, 128.775 126.595 C 129.476 126.735, 129.589 126.621, 129.025 126.342 C 128.461 126.062, 128 123.204, 128 119.990 C 128 115.266, 128.335 114.059, 129.750 113.689 C 131.041 113.352, 130.898 113.202, 129.204 113.116 C 127 113.005, 126.920 113.266, 127.204 119.670 M 435.035 124.475 L 428.571 131.500 435.489 124.787 C 439.294 121.095, 442.203 117.933, 441.954 117.762 C 441.704 117.590, 438.591 120.611, 435.035 124.475 M 59.404 130 L 59.500 132.500 71.500 132.546 L 83.500 132.592 71.814 132.266 C 60.652 131.954, 60.109 131.840, 59.717 129.720 C 59.371 127.844, 59.322 127.887, 59.404 130 M 110.362 128.500 C 110.045 129.325, 110.045 130.675, 110.362 131.500 C 110.837 132.738, 113.086 132.962, 123.219 132.784 L 135.500 132.568 123.139 132.252 L 110.779 131.937 111.251 129.468 C 111.774 126.732, 111.256 126.169, 110.362 128.500 M 441.211 144.475 C 448.202 151.590, 454.052 157.207, 454.211 156.956 C 454.370 156.705, 448.650 150.884, 441.500 144.019 L 428.500 131.538 441.211 144.475 M 560.256 144.234 L 548.022 156.468 540.761 149.493 L 533.500 142.518 540.752 150.002 L 548.004 157.486 560.747 144.743 C 567.756 137.734, 573.265 132, 572.990 132 C 572.715 132, 566.984 137.505, 560.256 144.234" stroke="none" fill="#fbfbfb" fill-rule="evenodd"/><path d="M 483 9.571 C 483 18.284, 482.816 19.235, 481.038 19.700 C 479.959 19.983, 476.471 21.464, 473.288 22.992 L 467.500 25.770 460.744 19.156 L 453.988 12.542 441.499 25.001 L 429.010 37.460 435.594 44.095 L 442.178 50.730 440.201 54.615 C 439.113 56.752, 437.651 60.413, 436.953 62.750 L 435.683 67 426.342 67 C 421.204 67, 417 67.374, 417 67.832 C 417 68.289, 414.691 70.159, 411.869 71.988 C 402.756 77.893, 397.147 88.124, 397.060 99 C 396.973 109.741, 402.069 115.703, 410.520 114.751 C 412.984 114.473, 415 114.559, 415 114.943 C 415 116.922, 407.098 124.458, 403.329 126.073 C 399.956 127.519, 399 128.454, 399 130.309 C 399 136.404, 407.563 137.933, 415.054 133.178 C 421.732 128.938, 427.370 120.392, 432.489 106.750 C 433.470 104.138, 434.589 102, 434.978 102 C 435.366 102, 436.255 103.912, 436.953 106.250 C 437.651 108.587, 439.113 112.248, 440.201 114.385 L 442.178 118.270 435.594 124.905 L 429.010 131.540 441.499 143.999 L 453.988 156.458 460.744 149.844 L 467.500 143.230 473.288 146.008 C 476.471 147.536, 479.959 149.017, 481.038 149.300 C 482.816 149.765, 483 150.716, 483 159.429 L 483 169.046 500.750 168.773 L 518.500 168.500 519 159.195 L 519.500 149.889 525 147.647 C 528.025 146.413, 531.400 144.887, 532.500 144.254 C 534.265 143.240, 535.294 143.889, 541.256 149.781 L 548.012 156.458 560.501 143.999 L 572.990 131.540 566.349 124.847 L 559.707 118.155 561.719 113.827 C 562.825 111.447, 564.332 107.813, 565.066 105.750 L 566.402 102 575.701 102 L 585 102 585 84.500 L 585 67 575.750 66.975 L 566.500 66.950 563.125 58.876 L 559.751 50.802 566.370 44.131 L 572.990 37.460 560.501 25.001 L 548.012 12.542 541.256 19.219 C 535.294 25.111, 534.265 25.760, 532.500 24.746 C 531.400 24.113, 528.025 22.587, 525 21.353 L 519.500 19.111 519 9.805 L 518.500 0.500 500.750 0.227 L 483 -0.046 483 9.571 M 485.692 2.642 C 485.311 3.022, 485 7.273, 485 12.089 L 485 20.845 481.250 22.049 C 479.188 22.711, 475.092 24.375, 472.149 25.747 L 466.797 28.241 460.393 21.894 L 453.988 15.546 442.998 26.502 L 432.008 37.458 438.439 43.979 L 444.870 50.500 443.244 53.500 C 442.349 55.150, 440.631 59.200, 439.426 62.500 C 437.343 68.203, 437.055 68.515, 433.596 68.812 C 431.595 68.983, 430.201 69.516, 430.497 69.996 C 430.794 70.476, 432.525 70.627, 434.343 70.332 C 436.894 69.918, 438.290 70.345, 440.447 72.200 L 443.243 74.606 438.976 86.836 C 435.208 97.633, 434.888 99.209, 436.241 100.283 C 437.085 100.952, 438.520 103.750, 439.430 106.500 C 440.341 109.250, 441.936 113.075, 442.975 115 L 444.865 118.500 438.436 125.021 L 432.008 131.542 442.998 142.498 L 453.988 153.454 460.470 147.029 L 466.952 140.605 470.726 142.679 C 472.802 143.819, 476.846 145.514, 479.713 146.445 L 484.927 148.136 485.213 157.318 L 485.500 166.500 501 166.500 L 516.500 166.500 516.638 157.540 C 516.768 149.114, 516.917 148.523, 519.138 147.638 C 520.437 147.121, 524.560 145.339, 528.300 143.678 L 535.101 140.658 541.556 147.056 L 548.012 153.454 559.002 142.498 L 569.992 131.542 563.536 125.021 L 557.081 118.500 560.018 112.500 C 561.634 109.200, 563.241 105.037, 563.589 103.250 L 564.223 100 573.611 100 L 583 100 583 84.500 L 583 69 573.611 69 L 564.223 69 563.589 65.750 C 563.241 63.962, 561.634 59.800, 560.018 56.500 L 557.081 50.500 563.536 43.979 L 569.992 37.458 559.002 26.502 L 548.012 15.546 541.556 21.944 L 535.101 28.342 528.300 25.322 C 524.560 23.661, 520.437 21.879, 519.138 21.362 C 516.917 20.477, 516.768 19.886, 516.638 11.460 L 516.500 2.500 501.442 2.225 C 493.160 2.074, 486.072 2.261, 485.692 2.642 M 210.747 48.203 C 202.878 50.293, 194.373 60.214, 183.488 80.001 C 174.457 96.417, 170.112 102.590, 166.103 104.695 C 156.571 109.701, 165.626 118.118, 175.501 113.432 C 179.476 111.546, 184.475 104.538, 192.929 89 C 200.465 75.149, 201.341 74.083, 199.419 81.101 C 197.597 87.752, 196.481 102.421, 197.417 107.410 C 198.900 115.312, 205.299 117.397, 210.737 111.750 C 212.458 109.963, 217.046 102.653, 220.933 95.507 C 224.820 88.361, 227.995 82.736, 227.988 83.007 C 227.982 83.278, 227.312 85.975, 226.500 89 C 225.688 92.025, 225.018 97.583, 225.012 101.350 C 225.001 107.814, 225.192 108.392, 228.400 111.600 C 231.186 114.386, 232.557 115, 235.996 115 C 243.361 115, 248.514 110.391, 247.832 104.412 C 247.519 101.669, 247.253 101.511, 243.250 101.689 C 240.520 101.811, 239.005 101.453, 239.015 100.689 C 239.052 97.695, 242.499 85.166, 247.228 70.834 C 251.686 57.324, 252.237 54.816, 251.233 52.612 C 248.825 47.327, 239.925 48.363, 232.853 54.752 C 228.258 58.903, 224.554 64.051, 218.357 74.899 C 215.969 79.079, 214.012 81.921, 214.007 81.213 C 214.003 80.505, 216.050 73.884, 218.555 66.499 C 223.591 51.651, 223.533 50.079, 217.872 48.105 C 216.128 47.497, 214.656 47.047, 214.601 47.103 C 214.545 47.160, 212.811 47.655, 210.747 48.203 M 490.870 50.507 C 484.438 52.568, 477.195 57.672, 473.165 62.983 C 470.593 66.372, 468.740 67.726, 465.570 68.530 C 450.516 72.353, 438.799 93.690, 444.869 106.230 C 447.957 112.608, 453.227 115.353, 461.334 114.806 C 464.725 114.577, 469.177 113.581, 471.226 112.592 L 474.953 110.795 478.897 113.918 C 488.477 121.506, 501.178 123.854, 512.776 120.181 C 538.676 111.979, 546.684 78.842, 527.421 59.579 C 520.643 52.801, 513.419 49.690, 503.608 49.325 C 498.400 49.131, 493.844 49.554, 490.870 50.507 M 209.500 52.391 C 202.833 55.307, 195.340 65.254, 183.062 87.487 C 176.467 99.430, 169.930 108, 167.415 108 C 165.040 108, 165.841 110.922, 168.392 111.562 C 171.836 112.427, 176.441 109.678, 179.807 104.749 C 181.403 102.412, 186.642 93.300, 191.450 84.500 C 200.704 67.560, 207.186 58, 209.416 58 C 210.429 58, 210.149 59.532, 208.296 64.119 C 203.895 75.015, 200.963 88.649, 200.913 98.458 C 200.887 103.431, 201.156 108.253, 201.510 109.173 C 202.288 111.191, 204.458 112.145, 206.494 111.364 C 208.345 110.654, 214.750 100.255, 223 84.567 C 231.259 68.863, 238.281 58, 240.173 58 C 240.612 58, 240.016 60.362, 238.850 63.250 C 234.346 74.399, 228.943 92.249, 228.347 97.951 C 227.421 106.814, 230.466 112, 236.597 112 C 239.270 112, 243.840 109.079, 244.520 106.936 C 245.408 104.141, 244.798 103.746, 241.517 104.994 C 234.044 107.835, 234.328 99.308, 242.548 74.030 C 245.664 64.448, 248.425 56.056, 248.684 55.381 C 248.943 54.706, 248.284 53.687, 247.220 53.118 C 244.005 51.397, 238.856 53.556, 233.828 58.734 C 228.042 64.693, 224.138 70.892, 215.397 88 C 209.225 100.080, 208.467 101.159, 208.187 98.261 C 207.693 93.134, 210.673 79.255, 215.103 66.054 C 217.345 59.375, 218.928 53.255, 218.621 52.455 C 217.933 50.662, 213.521 50.631, 209.500 52.391 M 492.286 52.391 C 485.797 54.511, 479.531 58.561, 475.557 63.205 L 471.945 67.424 475.134 68.962 C 485.481 73.952, 485.059 88.409, 474.377 94.885 C 469.299 97.964, 468.927 98.811, 472.911 98.226 C 476.598 97.685, 478.251 100.400, 477.812 106.277 C 477.513 110.281, 477.702 110.590, 482.376 113.736 C 500.078 125.650, 523.785 119.204, 532.892 100 C 535.102 95.339, 535.500 93.127, 535.500 85.500 C 535.500 77.852, 535.102 75.651, 532.849 70.845 C 529.543 63.794, 523.156 57.457, 516.055 54.184 C 509.450 51.140, 498.616 50.323, 492.286 52.391 M 14.132 78.549 C 9.110 93.200, 5 105.543, 5 105.977 C 5 106.411, 4.100 107.002, 3 107.290 C 1.649 107.643, 1 108.654, 1 110.406 L 1 113 10.500 113 C 19.884 113, 20 112.970, 20 110.579 C 20 108.703, 19.326 108.011, 17.001 107.500 C 14.349 106.918, 14.076 106.532, 14.647 104.171 C 16.453 96.699, 15.916 97, 27.445 97 L 37.939 97 39.334 101.750 L 40.729 106.500 37.864 107.279 C 35.682 107.872, 35 108.653, 35 110.560 L 35 113.063 46.750 112.782 C 57.905 112.514, 58.515 112.391, 58.806 110.352 C 59.031 108.774, 58.401 107.967, 56.430 107.310 C 53.962 106.487, 53.013 104.262, 44.554 79.458 L 35.361 52.500 29.313 52.206 L 23.265 51.911 14.132 78.549 M 22.731 75.759 C 20.658 83.317, 18.970 89.838, 18.981 90.250 C 18.991 90.662, 22.873 91, 27.607 91 C 34.078 91, 36.096 90.690, 35.740 89.750 C 35.480 89.063, 33.519 82.542, 31.384 75.261 C 29.248 67.980, 27.275 62.021, 27 62.020 C 26.725 62.019, 24.804 68.201, 22.731 75.759 M 64.191 67.713 C 60.019 68.108, 59.892 68.222, 60.191 71.310 C 60.426 73.740, 61.036 74.576, 62.750 74.820 L 65 75.139 65 101.070 L 65 127 62.500 127 C 60.500 127, 60 127.500, 60 129.500 L 60 132 72.070 132 C 84.014 132, 84.136 131.977, 83.820 129.750 C 83.563 127.943, 82.762 127.439, 79.750 127.190 L 76 126.879 76 120.126 L 76 113.373 82.290 113.314 C 89.335 113.248, 94.769 111.007, 99.197 106.342 C 109.128 95.878, 107.308 74.348, 95.998 68.499 C 91.380 66.111, 83.918 66.566, 79.595 69.500 C 75.121 72.537, 75.215 72.532, 74.820 69.750 C 74.473 67.308, 72.492 66.928, 64.191 67.713 M 115.191 67.713 C 111.019 68.108, 110.892 68.222, 111.191 71.310 C 111.426 73.740, 112.036 74.576, 113.750 74.820 L 116 75.139 116 101 L 116 126.861 113.750 127.180 C 112.304 127.386, 111.386 128.304, 111.180 129.750 C 110.864 131.977, 110.983 132, 123 132 C 135.017 132, 135.136 131.977, 134.820 129.750 C 134.575 128.027, 133.680 127.383, 131 127 L 127.500 126.500 127.209 119.937 L 126.917 113.374 133.209 113.310 C 140.599 113.235, 145.389 111.457, 149.633 107.213 C 160.435 96.411, 158.918 74.663, 146.931 68.464 C 142.374 66.108, 134.895 66.582, 130.595 69.500 C 126.121 72.537, 126.215 72.532, 125.820 69.750 C 125.473 67.308, 123.492 66.928, 115.191 67.713 M 269.345 70.917 C 256.630 78.354, 249.132 95.203, 253.477 106.578 C 256.603 114.765, 265.110 117.450, 272.351 112.536 L 275.982 110.073 278.445 112.536 C 283.217 117.308, 292.372 114.951, 295.616 108.115 C 297.685 103.754, 296.492 101.496, 292.126 101.510 C 287.800 101.523, 288.007 99.819, 294.009 86.054 C 296.754 79.758, 299 74.038, 299 73.343 C 299 72.647, 297.988 71.128, 296.750 69.967 C 294.999 68.324, 293.724 67.988, 291 68.451 C 286.515 69.213, 285.537 69.217, 279.500 68.497 C 275.143 67.978, 273.837 68.289, 269.345 70.917 M 308.750 69.572 C 305.791 71.177, 305.105 74.595, 307.100 77.789 C 307.967 79.177, 307.410 81.671, 304.478 89.526 C 302.431 95.012, 299.911 101.170, 298.878 103.210 C 296.413 108.079, 296.507 109.598, 299.455 112.545 C 302.194 115.285, 307.066 115.831, 308.912 113.606 C 309.548 112.839, 311.439 109.384, 313.113 105.928 C 316.069 99.827, 323.156 89.775, 326.402 87.081 C 327.546 86.132, 327.289 87.310, 325.505 91.208 C 320.619 101.881, 321.232 110.517, 327.091 113.547 C 331.111 115.626, 335.194 115.344, 339.089 112.719 C 345.204 108.598, 345.545 101.450, 339.623 101.539 C 338.180 101.561, 337 101.224, 337 100.791 C 337 100.357, 338.800 96.005, 341 91.119 C 345.268 81.640, 345.854 77.552, 343.575 73.145 C 340.307 66.825, 330.043 66.423, 325.066 72.421 C 323.927 73.793, 323.454 73.627, 320.987 70.987 C 317.814 67.589, 313.355 67.074, 308.750 69.572 M 367.259 70.101 C 364.926 71.256, 360.795 74.632, 358.079 77.603 C 347.031 89.692, 345.761 107.211, 355.472 113.574 C 358.747 115.720, 365.698 115.064, 369.674 112.232 L 372.530 110.199 375.321 112.599 C 378.738 115.539, 383.330 115.706, 387.686 113.050 C 391.553 110.692, 393.227 107.802, 392.812 104.201 C 392.547 101.904, 392.017 101.491, 389.274 101.441 C 387.499 101.408, 385.785 101.118, 385.463 100.797 C 384.872 100.205, 388.408 90.785, 393.594 79.133 L 396.429 72.765 393.659 70.383 C 390.697 67.835, 386.148 67.252, 384.227 69.173 C 383.330 70.070, 382.449 70.070, 380.480 69.173 C 376.641 67.424, 372.011 67.749, 367.259 70.101 M 492.223 69.557 C 489.754 71.286, 489.322 74.941, 491.226 77.990 C 492.259 79.645, 491.709 82.138, 487.726 93.854 C 485.127 101.500, 483 108.281, 483 108.923 C 483 111.261, 487.880 115, 490.931 115 C 494.344 115, 495.533 113.546, 499.110 105 C 501.575 99.111, 506.723 90.051, 509.880 86.047 C 511.594 83.874, 512.110 83.729, 514.407 84.776 C 519.472 87.083, 524 82.765, 524 75.627 C 524 68.604, 515.959 65.640, 510.154 70.524 L 507.155 73.048 504.431 70.524 C 501.248 67.574, 495.683 67.133, 492.223 69.557 M 275.365 71.963 C 265.621 74.254, 256.014 87.684, 256.025 99 C 256.030 105.582, 257.583 109.032, 261.353 110.840 C 265.483 112.820, 268.904 111.487, 274.250 105.814 L 279 100.773 279 104.863 C 279 108.120, 279.508 109.287, 281.493 110.587 C 284.422 112.507, 288.119 111.881, 291.025 108.975 C 294.088 105.912, 293.550 104.337, 289.598 104.799 C 286.853 105.119, 286.072 104.801, 285.547 103.147 C 284.627 100.249, 286.513 94.009, 291.601 83.121 C 294.021 77.944, 296 73.537, 296 73.329 C 296 73.121, 294.807 72.497, 293.349 71.943 C 291.149 71.106, 290.300 71.309, 288.360 73.132 C 286.231 75.132, 285.863 75.190, 284.260 73.783 C 281.842 71.659, 279.072 71.092, 275.365 71.963 M 311.250 72.031 C 308.871 72.988, 308.336 74.471, 310 75.500 C 312.471 77.027, 309.237 89.581, 303.376 101.217 C 300.469 106.987, 300.375 109.595, 303.021 111.011 C 305.841 112.520, 306.849 111.602, 310.043 104.614 C 314.755 94.306, 328.617 77.569, 331.891 78.235 C 334.202 78.705, 333.697 81.409, 329.571 90.671 C 323.576 104.126, 324.645 111.400, 332.615 111.400 C 335.357 111.400, 336.849 110.714, 338.644 108.628 C 341.370 105.458, 340.925 103.435, 337.861 105.074 C 335.166 106.517, 333 105.554, 333 102.913 C 333 101.731, 334.744 96.880, 336.875 92.132 C 339.007 87.384, 341.072 82.019, 341.464 80.209 C 342.841 73.853, 336.986 69.404, 331.190 72.402 C 328.232 73.932, 321.449 80.859, 318.495 85.367 C 316.295 88.724, 315.570 88.219, 317.090 84.389 C 319.720 77.759, 319.924 74.924, 317.914 72.914 C 315.820 70.820, 314.649 70.665, 311.250 72.031 M 370.852 72.391 C 361.668 75.672, 353.909 86.092, 352.388 97.189 C 351.646 102.599, 353.769 108.147, 357.521 110.605 C 359.953 112.199, 360.598 112.230, 364.313 110.933 C 367.025 109.986, 369.533 108.033, 371.708 105.172 L 375 100.845 375 103.968 C 375 107.631, 378.825 112, 382.031 112 C 384.142 112, 390 107.010, 390 105.213 C 390 104.695, 388.313 104.323, 386.250 104.386 L 382.500 104.500 382.552 100 C 382.588 96.856, 384.069 92.219, 387.469 84.609 C 392.115 74.213, 392.251 73.657, 390.477 72.359 C 388.009 70.555, 387.421 70.632, 385.160 73.059 L 383.242 75.118 379.871 73.063 C 375.963 70.680, 375.696 70.660, 370.852 72.391 M 418.885 72.358 C 405.304 77.294, 396.215 95.220, 401.570 106.507 C 404.841 113.400, 411.995 113.284, 419.353 106.218 C 422.914 102.798, 423.168 102.701, 422.524 105 C 421.036 110.315, 416.151 119.759, 413.082 123.254 C 411.315 125.266, 408.092 127.697, 405.919 128.656 C 402.497 130.166, 402.160 130.589, 403.398 131.827 C 407.444 135.873, 418.385 128.327, 424.172 117.500 C 425.642 114.750, 429.591 104.177, 432.948 94.005 C 438.581 76.931, 438.919 75.414, 437.341 74.260 C 435.961 73.251, 435.216 73.284, 433.464 74.431 C 431.541 75.692, 431.082 75.642, 429.398 73.989 C 426.742 71.383, 423.116 70.820, 418.885 72.358 M 466.275 71.952 C 456.479 74.338, 447 86.975, 447 97.649 C 447 106.334, 449.805 110.122, 457.269 111.523 C 465.186 113.008, 476.419 107.140, 474.622 102.458 C 474.109 101.119, 473.427 101.245, 469.762 103.353 C 463.324 107.055, 459.563 107.563, 457.065 105.065 C 455.929 103.929, 455 101.701, 455 100.114 C 455 97.433, 455.339 97.178, 459.750 96.541 C 462.363 96.164, 466.851 94.793, 469.724 93.495 C 484.152 86.976, 481.167 68.324, 466.275 71.952 M 495.250 72.031 C 492.871 72.988, 492.336 74.471, 494 75.500 C 496.424 76.998, 493.468 90.743, 487.959 103.596 C 486.063 108.018, 486.064 108.064, 488.087 110.087 C 489.208 111.208, 490.627 111.958, 491.241 111.753 C 492.532 111.323, 492.431 111.504, 498.370 98.906 C 500.911 93.516, 504.816 87.188, 507.280 84.466 C 511.615 79.678, 511.706 79.636, 514.889 80.954 C 518.600 82.491, 519.689 81.807, 520.574 77.382 C 521.219 74.153, 519.189 71, 516.463 71 C 514.129 71, 508.160 76.920, 504.754 82.615 C 500.914 89.034, 499.532 89.576, 501.544 83.874 C 502.345 81.605, 503 78.219, 503 76.350 C 503 73.621, 502.494 72.758, 500.435 71.975 C 499.024 71.439, 497.787 71.029, 497.685 71.063 C 497.583 71.098, 496.488 71.534, 495.250 72.031 M 79.990 74.759 L 76.500 76.500 76.500 91.963 L 76.500 107.425 79.622 108.320 C 83.873 109.540, 89.360 106.890, 91.319 102.673 C 95.148 94.431, 94.577 81.705, 90.169 77.003 C 86.610 73.207, 84.175 72.670, 79.990 74.759 M 131 74.752 L 127.500 76.500 127.500 91.936 L 127.500 107.373 130.728 108.209 C 135.228 109.375, 140.394 107.043, 142.647 102.829 C 145.136 98.172, 145.220 82.815, 142.780 78.358 C 141.473 75.970, 136.886 72.966, 134.601 73.002 C 134.545 73.002, 132.925 73.790, 131 74.752 M 417.683 77.973 C 409.365 85.277, 404.738 107, 411.500 107 C 414.518 107, 420.124 100.550, 423.979 92.642 C 429.280 81.768, 429.694 79.694, 427.087 77.087 C 424.227 74.227, 421.675 74.468, 417.683 77.973 M 272.711 79.250 C 267.148 84.518, 264.660 90.404, 264.574 98.500 L 264.500 105.500 267.458 105.500 C 269.835 105.500, 271.161 104.518, 274.209 100.500 C 276.295 97.750, 279.392 92.170, 281.092 88.099 C 283.616 82.056, 283.987 80.267, 283.113 78.349 C 281.505 74.819, 276.975 75.211, 272.711 79.250 M 370.057 78.605 C 365.748 82.231, 362.200 88.672, 360.874 95.275 C 358.617 106.511, 362.583 109.525, 369.520 101.847 C 373.645 97.281, 380 84.497, 380 80.766 C 380 75.542, 374.991 74.454, 370.057 78.605 M 463.541 78.701 C 460.731 81.482, 456.028 90.296, 456.010 92.817 C 455.987 95.861, 466.682 90.530, 469.797 85.945 C 474.899 78.437, 469.789 72.520, 463.541 78.701 M 275.602 81.099 C 271.921 83.994, 268.003 92.128, 267.303 98.328 L 266.719 103.500 269.407 101.031 C 272.398 98.284, 280 83.825, 280 80.884 C 280 78.451, 278.899 78.505, 275.602 81.099 M 371.253 82.250 C 367.006 86.646, 364.041 93.549, 364.058 99 L 364.072 103.500 366.620 100.500 C 369.381 97.249, 377 82.424, 377 80.303 C 377 78.039, 374.504 78.885, 371.253 82.250 M 420.072 80.413 C 419.363 81.267, 419.025 84.330, 419.215 88.163 L 419.531 94.500 421.772 89.840 C 423.005 87.277, 424.292 83.789, 424.632 82.090 C 425.158 79.460, 424.952 79, 423.247 79 C 422.146 79, 420.717 79.636, 420.072 80.413 M 462.719 85.137 C 460.646 88.783, 460.795 89.355, 463.332 87.499 C 464.358 86.749, 465.015 85.250, 464.830 84.083 C 464.537 82.237, 464.300 82.355, 462.719 85.137 M 414.580 88.500 C 413.540 90.700, 412.487 94.975, 412.240 98 L 411.792 103.500 414.446 100.928 C 416.892 98.556, 417.075 97.815, 416.786 91.428 L 416.472 84.500 414.580 88.500 M 460.691 99.722 C 457.560 100.193, 457.527 102.332, 460.644 102.795 C 463.189 103.174, 468 101.362, 468 100.025 C 468 99.003, 466.018 98.921, 460.691 99.722" stroke="none" fill="#305071" fill-rule="evenodd"/></svg>